<svg width="1065" height="468" viewBox="0 0 1065 468" fill="none" xmlns="http://www.w3.org/2000/svg" preserveAspectRatio="none">
  <!-- Вертикальные линии -->
  <line x1="0" y1="0" x2="0" y2="468" stroke="#3F3131" stroke-width="1"/>
  <line x1="95" y1="0" x2="95" y2="468" stroke="#3F3131" stroke-width="1"/>
  <line x1="190" y1="0" x2="190" y2="468" stroke="#3F3131" stroke-width="1"/>
  <line x1="285" y1="0" x2="285" y2="468" stroke="#3F3131" stroke-width="1"/>
  <line x1="380" y1="0" x2="380" y2="468" stroke="#3F3131" stroke-width="1"/>
  <line x1="475" y1="0" x2="475" y2="468" stroke="#3F3131" stroke-width="1"/>
  <line x1="570" y1="0" x2="570" y2="468" stroke="#3F3131" stroke-width="1"/>
  <line x1="665" y1="0" x2="665" y2="468" stroke="#3F3131" stroke-width="1"/>
  <line x1="760" y1="0" x2="760" y2="468" stroke="#3F3131" stroke-width="1"/>
  <line x1="855" y1="0" x2="855" y2="468" stroke="#3F3131" stroke-width="1"/>
  <line x1="950" y1="0" x2="950" y2="468" stroke="#3F3131" stroke-width="1"/>
  <line x1="1065" y1="0" x2="1065" y2="468" stroke="#3F3131" stroke-width="1"/>
  
  <!-- Горизонтальные линии -->
  <line x1="0" y1="0" x2="1065" y2="0" stroke="#3F3131" stroke-width="1"/>
  <line x1="0" y1="117" x2="1065" y2="117" stroke="#3F3131" stroke-width="1"/>
  <line x1="0" y1="234" x2="1065" y2="234" stroke="#3F3131" stroke-width="1"/>
  <line x1="0" y1="351" x2="1065" y2="351" stroke="#3F3131" stroke-width="1"/>
  <line x1="0" y1="468" x2="1065" y2="468" stroke="#3F3131" stroke-width="1"/>
</svg>
